<?xml version="1.0" standalone="no"?><!DOCTYPE svg PUBLIC "-//W3C//DTD SVG 1.1//EN" "http://www.w3.org/Graphics/SVG/1.1/DTD/svg11.dtd"><svg t="1524884967598" class="icon" style="" viewBox="0 0 1025 1024" version="1.1" xmlns="http://www.w3.org/2000/svg" p-id="1081" xmlns:xlink="http://www.w3.org/1999/xlink" width="200.1953125" height="200"><defs><style type="text/css"></style></defs><path d="M968.07532972 314.56278371c-25.00983664-58.86856071-60.76949854-111.79619315-106.28486166-157.31254853-45.51635537-45.51536312-98.44398782-81.27502503-157.31254852-106.28486165C643.46038563 25.04376089 578.78880487 11.89990478 512.25994042 11.89990478S381.05850298 25.04376089 320.04096907 50.96537353c-58.86856071 25.00983664-111.79619315 60.76949854-157.31254852 106.28486165-45.51536312 45.51635537-81.27502503 98.44398782-106.28486166 157.31254853C30.52194624 375.58031665 17.37809014 440.25189742 17.37809014 506.78175507S30.52194624 637.98220029 56.44355889 698.99973321c25.00983664 58.86955296 60.76949854 111.79718542 106.28486166 157.31254852 45.51536312 45.51635537 98.44299654 81.27601728 157.31254852 106.28486167 61.01753293 25.92260489 125.6891137 39.06646099 192.21897137 39.066461s131.2004452-13.14385609 192.2179791-39.066461c58.86955296-25.00884439 111.79718542-60.76850629 157.31254854-106.28486165 45.51635537-45.51536312 81.27601728-98.44299654 106.28486164-157.31254854 25.92260489-61.01753293 39.06646099-125.6891137 39.06646101-192.21797911S993.99694236 375.58031665 968.07532972 314.56278371zM924.24461815 680.37927147c-22.60985327 53.22031422-54.95258795 101.08307727-96.12833601 142.25981756-41.17674031 41.17574806-89.03950336 73.51848273-142.25981758 96.12833601-55.09545645 23.40654088-113.50168001 35.27450591-173.59751639 35.27450591-60.09583638 0-118.50205994-11.86796504-173.59751638-35.27450591-53.22031422-22.60985327-101.08307727-54.95258795-142.25882533-96.12833601-41.17574806-41.17674031-73.51848273-89.03950336-96.128336-142.25981756C76.8677296 625.283815 65.00075679 566.87659919 65.00075679 506.78175507c0-60.09583638 11.86796504-118.50205994 35.27450592-173.59751638 22.60985327-53.22031422 54.9515957-101.08307727 96.12833602-142.25882532s89.03950336-73.51848273 142.25882531-96.12833602c55.09545645-23.40654088 113.50168001-35.27450591 173.5975164-35.27450591 60.09484413 0 118.50106769 11.86796504 173.59751637 35.27450591 53.22031422 22.60985327 101.08307727 54.9515957 142.25882535 96.12833602 41.17674031 41.17574806 73.51848273 89.03950336 96.12932824 142.25882532 23.40654088 55.09545645 35.27450591 113.50267226 35.27450592 173.59751638S947.65115901 625.283815 924.24461815 680.37927147z" fill="#ffffff" p-id="1082"></path><path d="M698.65207968 320.39656062c-9.68724373-9.68625148-25.390818-9.68625148-35.07707046-2e-8L512.37105983 471.59951775 361.1681027 320.39656062c-9.68625148-9.68625148-25.39181025-9.68625148-35.07707045-2e-8-9.68625148 9.68625148-9.68625148 25.390818 0 35.07707046l151.20295714 151.20295715L326.09103225 657.88053758c-9.68625148 9.68724373-9.68625148 25.39181025 0 35.07707046 4.84262961 4.84362186 11.19132611 7.26444055 17.53903134 7.26444054s12.69540948-2.42081868 17.53903136-7.26444054l151.20295713-151.20295714L663.57401794 692.95760804c4.84362186 4.84362186 11.19033484 7.26444055 17.53903136 7.26444054s12.69540948-2.42081868 17.53903134-7.26444054c9.68625148-9.68625148 9.68625148-25.390818 0-35.07707044L547.44912254 506.67758046l151.20295714-151.20295715C708.33833115 345.78837086 708.33833115 330.0828121 698.65207968 320.39656062z" fill="#ffffff" p-id="1083"></path></svg>