<?xml version="1.0" standalone="no"?><!DOCTYPE svg PUBLIC "-//W3C//DTD SVG 1.1//EN" "http://www.w3.org/Graphics/SVG/1.1/DTD/svg11.dtd"><svg t="1524884964438" class="icon" style="" viewBox="0 0 1024 1024" version="1.1" xmlns="http://www.w3.org/2000/svg" p-id="963" xmlns:xlink="http://www.w3.org/1999/xlink" width="200" height="200"><defs><style type="text/css"></style></defs><path d="M506.48106304 341.86046719C540.00933299 341.86046719 567.18936777 314.68043431 567.18936777 281.15216245 567.18936777 247.62389155 540.00933299 220.44385771 506.48106304 220.44385771 472.95279403 220.44385771 445.77275829 247.62389155 445.77275829 281.15216245 445.77275829 314.68043431 472.95279403 341.86046719 506.48106304 341.86046719ZM556.15149478 750.26179037L556.15149478 397.04983591 467.84850522 397.04983591 467.84850522 750.26179037 423.69701138 750.26179037 423.69701138 772.3375373 600.30298862 772.3375373 600.30298862 750.26179037 556.15149478 750.26179037 556.15149478 750.26179037ZM423.69701138 397.04983591L467.84850522 397.04983591 467.84850522 419.12558282 423.69701138 419.12558282 423.69701138 397.04983591ZM512 948.94351454L512 948.94351454C755.84196995 948.94351454 953.5149431 751.27054139 953.5149431 507.42857144 953.5149431 263.58660149 755.84196995 65.91362834 512 65.91362834 268.15803005 65.91362834 70.4850569 263.58660149 70.4850569 507.42857144 70.4850569 751.27054139 268.15803005 948.94351454 512 948.94351454L512 948.94351454ZM512 993.09500933L512 993.09500933C243.77384415 993.09500933 26.33356211 775.65473867 26.33356211 507.42857144 26.33356211 239.20240421 243.77384415 21.76213355 512 21.76213355 780.22615585 21.76213355 997.66643789 239.20240421 997.66643789 507.42857144 997.66643789 775.65473867 780.22615585 993.09500933 512 993.09500933L512 993.09500933Z" fill="#ffffff" p-id="964"></path></svg>